<?xml version="1.0" standalone="no"?>
<!DOCTYPE svg PUBLIC "-//W3C//DTD SVG 20010904//EN"
 "http://www.w3.org/TR/2001/REC-SVG-20010904/DTD/svg10.dtd">
<svg version="1.0" xmlns="http://www.w3.org/2000/svg"
 width="969.000000pt" height="818.000000pt" viewBox="0 0 969.000000 818.000000"
 preserveAspectRatio="xMidYMid meet">

<g transform="translate(0.000000,818.000000) scale(0.100000,-0.100000)"
fill="#000000" stroke="none">
<path d="M5480 6435 l0 -825 1460 0 1460 0 0 825 0 825 -1460 0 -1460 0 0
-825z m2908 -3 l2 -812 -1447 2 -1448 3 -3 800 c-1 440 0 806 3 813 3 10 298
12 1447 10 l1443 -3 3 -813z"/>
<path d="M1480 6435 l0 -84 -87 -3 -88 -3 -3 -807 -2 -808 97 -1 c54 0 566 0
1138 1 985 1 1042 0 1072 -17 33 -18 245 -208 404 -360 64 -63 92 -83 113 -83
24 0 218 43 320 71 47 13 58 4 59 -48 0 -30 -96 -581 -173 -994 -5 -30 -10
-70 -10 -87 0 -27 4 -32 25 -32 14 0 25 -5 25 -12 0 -6 -21 -86 -47 -177 l-46
-166 12 -755 c7 -415 15 -785 18 -821 5 -63 7 -66 37 -75 26 -8 32 -15 38 -49
12 -72 8 -75 -95 -75 -68 0 -101 -5 -127 -18 -46 -23 -80 -75 -80 -123 l0 -39
245 0 245 0 0 84 c0 77 -2 85 -24 99 -18 12 -25 27 -28 62 -4 50 8 65 51 65
12 0 21 2 21 5 0 27 64 645 80 775 5 41 14 122 20 180 6 58 20 173 31 255 10
83 26 203 34 269 8 65 17 121 20 124 3 3 5 0 5 -5 0 -21 91 -1060 116 -1328
16 -173 29 -272 37 -277 7 -4 23 -8 37 -8 34 0 45 -10 48 -45 6 -71 1 -75 -99
-75 -54 0 -103 -6 -123 -14 -44 -18 -75 -63 -82 -120 l-7 -46 247 0 246 0 0
90 c0 81 -2 90 -19 90 -23 0 -37 16 -46 52 -4 15 -14 30 -23 34 -12 6 -3 10
28 13 l45 6 -3 320 c-4 395 33 1696 48 1726 13 23 114 157 290 384 138 178
158 207 154 220 -6 25 -98 317 -120 382 -13 39 -32 106 -44 149 -11 42 -24 91
-30 108 -5 17 -12 43 -15 58 -12 64 -108 133 -280 203 l-100 41 -6 53 c-4 29
-9 54 -10 56 -5 4 -224 32 -324 41 l-70 6 -30 -72 -30 -71 -82 -33 c-45 -18
-90 -42 -100 -54 -12 -13 -54 -30 -123 -48 -164 -42 -150 -44 -245 21 -47 32
-85 62 -85 66 0 13 66 21 140 17 l70 -4 0 68 0 68 110 0 110 0 0 830 0 830
-1465 0 -1465 0 0 -85z m1561 65 l1349 0 0 -810 0 -810 -100 0 -100 0 0 735 0
735 -1345 0 -1345 0 0 75 0 74 83 3 c45 2 88 2 95 1 8 -2 621 -3 1363 -3z
m2302 -2637 c9 -29 13 -55 9 -57 -4 -3 -19 -26 -32 -53 l-25 -48 -3 92 c-3 90
10 146 28 127 5 -5 15 -33 23 -61z"/>
<path d="M4682 5641 c-120 -41 -176 -149 -116 -220 23 -28 25 -35 15 -63 -20
-58 -13 -138 18 -204 53 -113 158 -172 284 -161 47 4 66 1 91 -14 60 -36 99
-20 166 71 61 82 78 123 86 198 12 112 -24 213 -100 279 -74 66 -253 133 -351
133 -22 -1 -64 -9 -93 -19z"/>
</g>
</svg>
